REM DIRINDEX 1\6,1\2\7,1\2\8,1\2\9,1\3\10,1\3\11,1\4\12,1\4\13,1\4\14,1\5\15,1\5\16,1\5\17
REM DIRNAME cjc040,folder01,folder02,folder03,folder04,folder05,folder06,folder07,folder08,folder09,folder10,folder11,folder12,folder13,folder14,folder15,folder16
TITLE ""
FILE "P2Q_t_0857-0874.mp3" MP3
  TRACK 01 AUDIO
    TITLE "10:cjc040_3369"
    INDEX 01 00:00:00
  TRACK 02 AUDIO
    TITLE "0:"
    INDEX 01 00:01:15
  TRACK 03 AUDIO
    TITLE "11:cjc040_3370"
    INDEX 01 00:02:04
  TRACK 04 AUDIO
    TITLE "0:"
    INDEX 01 00:04:19
  TRACK 05 AUDIO
    TITLE "10:cjc040_3371"
    INDEX 01 00:04:68
  TRACK 06 AUDIO
    TITLE "0:"
    INDEX 01 00:06:22
  TRACK 07 AUDIO
    TITLE "11:cjc040_3372"
    INDEX 01 00:06:71
  TRACK 08 AUDIO
    TITLE "0:"
    INDEX 01 00:08:07
  TRACK 09 AUDIO
    TITLE "10:cjc040_3373"
    INDEX 01 00:08:64
  TRACK 10 AUDIO
    TITLE "0:"
    INDEX 01 00:09:73
  TRACK 11 AUDIO
    TITLE "11:cjc040_3374"
    INDEX 01 00:10:51
  TRACK 12 AUDIO
    TITLE "0:"
    INDEX 01 00:11:56
  TRACK 13 AUDIO
    TITLE "10:cjc040_3375"
    INDEX 01 00:12:36
  TRACK 14 AUDIO
    TITLE "0:"
    INDEX 01 00:13:55
  TRACK 15 AUDIO
    TITLE "11:cjc040_3376"
    INDEX 01 00:14:37
  TRACK 16 AUDIO
    TITLE "0:"
    INDEX 01 00:17:37
  TRACK 17 AUDIO
    TITLE "10:cjc040_3377"
    INDEX 01 00:18:19
  TRACK 18 AUDIO
    TITLE "0:"
    INDEX 01 00:19:18
  TRACK 19 AUDIO
    TITLE "11:cjc040_3378"
    INDEX 01 00:20:00
  TRACK 20 AUDIO
    TITLE "0:"
    INDEX 01 00:22:13
  TRACK 21 AUDIO
    TITLE "10:cjc040_3379"
    INDEX 01 00:22:64
  TRACK 22 AUDIO
    TITLE "0:"
    INDEX 01 00:24:00
  TRACK 23 AUDIO
    TITLE "11:cjc040_3380"
    INDEX 01 00:24:55
  TRACK 24 AUDIO
    TITLE "0:"
    INDEX 01 00:26:40
  TRACK 25 AUDIO
    TITLE "10:cjc040_3381"
    INDEX 01 00:27:20
  TRACK 26 AUDIO
    TITLE "0:"
    INDEX 01 00:28:37
  TRACK 27 AUDIO
    TITLE "11:cjc040_3382"
    INDEX 01 00:29:19
  TRACK 28 AUDIO
    TITLE "0:"
    INDEX 01 00:32:64
  TRACK 29 AUDIO
    TITLE "10:cjc040_3383"
    INDEX 01 00:33:44
  TRACK 30 AUDIO
    TITLE "0:"
    INDEX 01 00:34:59
  TRACK 31 AUDIO
    TITLE "11:cjc040_3384"
    INDEX 01 00:35:47
  TRACK 32 AUDIO
    TITLE "0:"
    INDEX 01 00:39:05
  TRACK 33 AUDIO
    TITLE "10:cjc040_3385"
    INDEX 01 00:39:56
  TRACK 34 AUDIO
    TITLE "0:"
    INDEX 01 00:41:00
  TRACK 35 AUDIO
    TITLE "11:cjc040_3386"
    INDEX 01 00:41:55
  TRACK 36 AUDIO
    TITLE "0:"
    INDEX 01 00:44:07
  TRACK 37 AUDIO
    TITLE "10:cjc040_3387"
    INDEX 01 00:44:63
  TRACK 38 AUDIO
    TITLE "0:"
    INDEX 01 00:45:67
  TRACK 39 AUDIO
    TITLE "11:cjc040_3388"
    INDEX 01 00:46:47
  TRACK 40 AUDIO
    TITLE "0:"
    INDEX 01 00:49:61
  TRACK 41 AUDIO
    TITLE "10:cjc040_3389"
    INDEX 01 00:50:37
  TRACK 42 AUDIO
    TITLE "0:"
    INDEX 01 00:51:58
  TRACK 43 AUDIO
    TITLE "11:cjc040_3390"
    INDEX 01 00:52:37
  TRACK 44 AUDIO
    TITLE "0:"
    INDEX 01 00:56:06
  TRACK 45 AUDIO
    TITLE "10:cjc040_3391"
    INDEX 01 00:56:59
  TRACK 46 AUDIO
    TITLE "0:"
    INDEX 01 00:58:09
  TRACK 47 AUDIO
    TITLE "11:cjc040_3392"
    INDEX 01 00:58:67
  TRACK 48 AUDIO
    TITLE "0:"
    INDEX 01 00:59:47
  TRACK 49 AUDIO
    TITLE "10:cjc040_3393"
    INDEX 01 01:00:25
  TRACK 50 AUDIO
    TITLE "0:"
    INDEX 01 01:01:64
  TRACK 51 AUDIO
    TITLE "11:cjc040_3394"
    INDEX 01 01:02:38
  TRACK 52 AUDIO
    TITLE "0:"
    INDEX 01 01:03:55
  TRACK 53 AUDIO
    TITLE "10:cjc040_3395"
    INDEX 01 01:04:31
  TRACK 54 AUDIO
    TITLE "0:"
    INDEX 01 01:05:60
  TRACK 55 AUDIO
    TITLE "11:cjc040_3396"
    INDEX 01 01:06:43
  TRACK 56 AUDIO
    TITLE "0:"
    INDEX 01 01:10:22
  TRACK 57 AUDIO
    TITLE "10:cjc040_3397"
    INDEX 01 01:11:05
  TRACK 58 AUDIO
    TITLE "0:"
    INDEX 01 01:12:32
  TRACK 59 AUDIO
    TITLE "11:cjc040_3398"
    INDEX 01 01:13:08
  TRACK 60 AUDIO
    TITLE "0:"
    INDEX 01 01:17:06
  TRACK 61 AUDIO
    TITLE "10:cjc040_3399"
    INDEX 01 01:17:65
  TRACK 62 AUDIO
    TITLE "0:"
    INDEX 01 01:19:25
  TRACK 63 AUDIO
    TITLE "11:cjc040_3400"
    INDEX 01 01:20:06
  TRACK 64 AUDIO
    TITLE "0:"
    INDEX 01 01:22:13
  TRACK 65 AUDIO
    TITLE "10:cjc040_3401"
    INDEX 01 01:22:64
  TRACK 66 AUDIO
    TITLE "0:"
    INDEX 01 01:24:06
  TRACK 67 AUDIO
    TITLE "11:cjc040_3402"
    INDEX 01 01:24:63
  TRACK 68 AUDIO
    TITLE "0:"
    INDEX 01 01:25:62
  TRACK 69 AUDIO
    TITLE "10:cjc040_3403"
    INDEX 01 01:26:42
  TRACK 70 AUDIO
    TITLE "0:"
    INDEX 01 01:27:63
  TRACK 71 AUDIO
    TITLE "11:cjc040_3404"
    INDEX 01 01:28:43
  TRACK 72 AUDIO
    TITLE "0:"
    INDEX 01 01:29:43
